<svg width="142" height="142" viewBox="0 0 142 142" fill="none" xmlns="http://www.w3.org/2000/svg">
<rect x="3.12775" y="3.12775" width="135.744" height="135.744" rx="21.8943" fill="#2C2C2C"/>
<rect x="3.12775" y="3.12775" width="135.744" height="135.744" rx="21.8943" stroke="#353535" stroke-width="6.25551"/>
<path d="M71.6923 83.2442H61.0671L57.5849 102.798C49.2003 102.798 42.8484 95.2278 44.3049 86.9707L52.8526 38.5111H80.0853C86.8117 38.5111 91.6034 40.0588 94.4606 43.1541C96.544 45.5351 97.5857 48.5708 97.5857 52.2614C97.5857 53.5114 97.4666 54.821 97.2285 56.19L95.4428 66.2795C94.5499 71.2201 91.9308 75.2976 87.5855 78.5119C83.2402 81.6668 77.9424 83.2442 71.6923 83.2442ZM74.4602 52.44H66.4243L63.4778 69.3153H71.4244C76.3055 69.3153 79.1329 67.1427 79.9068 62.7973L80.5318 59.1365C80.6508 58.6008 80.7103 57.8865 80.7103 56.9936C80.7103 56.1008 80.2639 55.1186 79.371 54.0471C78.4782 52.9757 76.8412 52.44 74.4602 52.44Z" fill="#DDDDDD"/>
</svg>
